# xmcd
#
# Track frame offsets:
#	300
#	38415
#	63304
#	88940
#	121620
#	145019
#	176236
#	208766
#	242953
#	266044
#	296512
#
# Disc length: 4420 seconds
#
# Revision: 1
# Processed by: cddbd v1.5.1PL0 Copyright (c) Steve Scherf et al.
# Submitted via: audiograbber 1.83.01
#
DISCID=a311400b
DTITLE=CDPool - Club October 2005 CD1
DYEAR=2005
DGENRE=Club
TTITLE0=Solitaire  - I Like Love (I Love Love) (Moto Blanco Twisted Dub)
TTITLE1=Lifelike - Adventure (Original Mix)
TTITLE2=Sharam Jay - Push Your Body (Original Mix)
TTITLE3=Robbie Rivera - Some Kind Of Heaven (David Guetta Mix)
TTITLE4=Hystereo - Let's Do It (Original Mix)
TTITLE5=R.Rocco Featuring Aly J. Nasty  - You Said (S-Cream Dub)
TTITLE6=Marisa Turner - Secret (Dennis Christopher Club Mix)
TTITLE7=DJ Bomba and J Paolo - Esuma (Don't Do Anything That I Do) (Original Club
TTITLE7=Mix)
TTITLE8=Niels De Vries  - 12Inch (Original Mix)
TTITLE9=Matt Darey Featuring Marcella Woods  - Liberation (Lys and Gigi Remix)
TTITLE10=Conjure One  - Extraordinary Way (Antillas Remix)
EXTD=
EXTT0=
EXTT1=
EXTT2=
EXTT3=
EXTT4=
EXTT5=
EXTT6=
EXTT7=
EXTT8=
EXTT9=
EXTT10=
PLAYORDER=
